<?xml version="1.0" encoding="iso-8859-1"?>
<!-- Uploaded to: SVG Repo, www.svgrepo.com, Generator: SVG Repo Mixer Tools -->
<!DOCTYPE svg PUBLIC "-//W3C//DTD SVG 1.1//EN" "http://www.w3.org/Graphics/SVG/1.1/DTD/svg11.dtd">
<svg fill="#000000" version="1.1" id="Capa_1" xmlns="http://www.w3.org/2000/svg" xmlns:xlink="http://www.w3.org/1999/xlink" 
	 width="800px" height="800px" viewBox="0 0 152.438 152.438"
	 xml:space="preserve">
<g>
	<path d="M4.6,76.219c1.938,0,3.504-1.567,3.504-3.504V3.505C8.104,1.567,6.539,0,4.6,0C2.663,0,1.096,1.567,1.096,3.505v69.209
		C1.096,74.651,2.667,76.219,4.6,76.219z"/>
	<path d="M18.617,72.714V3.505C18.617,1.567,17.052,0,15.113,0c-1.937,0-3.504,1.567-3.504,3.505v69.209
		c0,1.937,1.567,3.504,3.504,3.504C17.052,76.219,18.617,74.651,18.617,72.714z"/>
	<path d="M29.13,72.714V3.505C29.13,1.567,27.564,0,25.626,0c-1.937,0-3.504,1.567-3.504,3.505v69.209
		c0,1.937,1.567,3.504,3.504,3.504C27.564,76.219,29.13,74.651,29.13,72.714z"/>
	<path d="M39.643,72.714V3.505C39.643,1.567,38.077,0,36.139,0c-1.937,0-3.504,1.567-3.504,3.505v69.209
		c0,1.937,1.567,3.504,3.504,3.504C38.077,76.219,39.643,74.651,39.643,72.714z"/>
	<path d="M43.147,3.505v69.209c0,1.937,1.567,3.504,3.504,3.504c1.939,0,3.504-1.567,3.504-3.504V3.505
		C50.156,1.567,48.59,0,46.651,0C44.714,0,43.147,1.567,43.147,3.505z"/>
	<path d="M53.66,3.505v69.209c0,1.937,1.567,3.504,3.504,3.504c1.938,0,3.504-1.567,3.504-3.504V3.505
		C60.668,1.567,59.103,0,57.165,0C55.228,0,53.66,1.567,53.66,3.505z"/>
	<path d="M64.173,3.505v69.209c0,1.937,1.567,3.504,3.504,3.504c1.938,0,3.504-1.567,3.504-3.504V3.505
		C71.182,1.567,69.616,0,67.677,0C65.74,0,64.173,1.567,64.173,3.505z"/>
	<path d="M78.19,79.723v69.21c0,1.937,1.567,3.505,3.504,3.505c1.938,0,3.504-1.568,3.504-3.505v-69.21
		c0-1.937-1.566-3.504-3.504-3.504C79.758,76.219,78.19,77.786,78.19,79.723z"/>
	<path d="M88.703,79.723v69.21c0,1.937,1.567,3.505,3.504,3.505c1.938,0,3.505-1.568,3.505-3.505v-69.21
		c0-1.937-1.567-3.504-3.505-3.504C90.271,76.219,88.703,77.786,88.703,79.723z"/>
	<path d="M99.216,79.723v69.21c0,1.937,1.567,3.505,3.504,3.505c1.938,0,3.505-1.568,3.505-3.505v-69.21
		c0-1.937-1.567-3.504-3.505-3.504C100.783,76.219,99.216,77.786,99.216,79.723z"/>
	<path d="M109.729,79.723v69.21c0,1.937,1.567,3.505,3.505,3.505c1.937,0,3.504-1.568,3.504-3.505v-69.21
		c0-1.937-1.567-3.504-3.504-3.504C111.296,76.219,109.729,77.786,109.729,79.723z"/>
	<path d="M120.241,79.723v69.21c0,1.937,1.567,3.505,3.505,3.505c1.937,0,3.504-1.568,3.504-3.505v-69.21
		c0-1.937-1.567-3.504-3.504-3.504C121.809,76.219,120.241,77.786,120.241,79.723z"/>
	<path d="M130.755,79.723v69.21c0,1.937,1.566,3.505,3.504,3.505c1.937,0,3.504-1.568,3.504-3.505v-69.21
		c0-1.937-1.567-3.504-3.504-3.504C132.321,76.219,130.755,77.786,130.755,79.723z"/>
	<path d="M144.771,76.219c-1.937,0-3.504,1.567-3.504,3.504v69.21c0,1.937,1.567,3.505,3.504,3.505c1.938,0,3.505-1.568,3.505-3.505
		v-69.21C148.276,77.786,146.709,76.219,144.771,76.219z"/>
	<path d="M151.342,69.648c0-1.937-1.567-3.504-3.504-3.504h-69.21c-1.937,0-3.504,1.567-3.504,3.504s1.567,3.504,3.504,3.504h69.21
		C149.774,73.152,151.342,71.585,151.342,69.648z"/>
	<path d="M147.838,55.631h-69.21c-1.937,0-3.504,1.567-3.504,3.504s1.567,3.504,3.504,3.504h69.21c1.937,0,3.504-1.567,3.504-3.504
		S149.774,55.631,147.838,55.631z"/>
	<path d="M147.838,45.118h-69.21c-1.937,0-3.504,1.567-3.504,3.504c0,1.938,1.567,3.504,3.504,3.504h69.21
		c1.937,0,3.504-1.567,3.504-3.504C151.342,46.686,149.774,45.118,147.838,45.118z"/>
	<path d="M147.838,34.605h-69.21c-1.937,0-3.504,1.567-3.504,3.504s1.567,3.504,3.504,3.504h69.21c1.937,0,3.504-1.567,3.504-3.504
		S149.774,34.605,147.838,34.605z"/>
	<path d="M147.838,24.092h-69.21c-1.937,0-3.504,1.567-3.504,3.504s1.567,3.504,3.504,3.504h69.21c1.937,0,3.504-1.567,3.504-3.504
		S149.774,24.092,147.838,24.092z"/>
	<path d="M147.838,13.58h-69.21c-1.937,0-3.504,1.567-3.504,3.504c0,1.937,1.567,3.504,3.504,3.504h69.21
		c1.937,0,3.504-1.567,3.504-3.504C151.342,15.146,149.774,13.58,147.838,13.58z"/>
	<path d="M147.838,3.066h-69.21c-1.937,0-3.504,1.567-3.504,3.504s1.567,3.504,3.504,3.504h69.21c1.937,0,3.504-1.567,3.504-3.504
		S149.774,3.066,147.838,3.066z"/>
	<path d="M73.81,145.429H4.6c-1.937,0-3.504,1.567-3.504,3.504s1.567,3.505,3.504,3.505H73.81c1.938,0,3.505-1.568,3.505-3.505
		S75.748,145.429,73.81,145.429z"/>
	<path d="M73.81,134.916H4.6c-1.937,0-3.504,1.566-3.504,3.504c0,1.937,1.567,3.504,3.504,3.504H73.81
		c1.938,0,3.505-1.567,3.505-3.504C77.314,136.482,75.748,134.916,73.81,134.916z"/>
	<path d="M73.81,124.402H4.6c-1.937,0-3.504,1.567-3.504,3.505c0,1.937,1.567,3.504,3.504,3.504H73.81
		c1.938,0,3.505-1.567,3.505-3.504C77.314,125.97,75.748,124.402,73.81,124.402z"/>
	<path d="M73.81,113.89H4.6c-1.937,0-3.504,1.567-3.504,3.505c0,1.937,1.567,3.504,3.504,3.504H73.81
		c1.938,0,3.505-1.567,3.505-3.504C77.314,115.457,75.748,113.89,73.81,113.89z"/>
	<path d="M73.81,103.377H4.6c-1.937,0-3.504,1.567-3.504,3.504c0,1.938,1.567,3.505,3.504,3.505H73.81
		c1.938,0,3.505-1.567,3.505-3.505C77.314,104.944,75.748,103.377,73.81,103.377z"/>
	<path d="M73.81,92.864H4.6c-1.937,0-3.504,1.567-3.504,3.504c0,1.938,1.567,3.505,3.504,3.505H73.81
		c1.938,0,3.505-1.567,3.505-3.505C77.314,94.432,75.748,92.864,73.81,92.864z"/>
	<path d="M73.81,82.352H4.6c-1.937,0-3.504,1.566-3.504,3.504c0,1.937,1.567,3.504,3.504,3.504H73.81
		c1.938,0,3.505-1.567,3.505-3.504C77.314,83.918,75.748,82.352,73.81,82.352z"/>
</g>
</svg>